control3min_grf.mot
version=1
nRows=17
nColumns 19
inDegrees=yes
endheader
time	1_ground_force_vx	1_ground_force_vy	1_ground_force_vz	1_ground_force_px	1_ground_force_py	1_ground_force_pz	1_ground_torque_x	1_ground_torque_y	1_ground_torque_z	2_ground_force_vx	2_ground_force_vy	2_ground_force_vz	2_ground_force_px	2_ground_force_py	2_ground_force_pz	2_ground_torque_x	2_ground_torque_y	2_ground_torque_z
            2.502500	          -31.713103	          191.155915	          -17.857222	           -0.244348	            0.006329	           -0.430522	            0.022274	           -0.134262	            0.012542	          -10.058943	           88.316511	           11.394565	           -0.245075	            0.005767	           -0.744732	            0.221946	           -1.948666	           -0.251416
            2.503000	          -31.208938	          195.481209	          -17.564787	           -0.244760	            0.006321	           -0.428627	            0.053231	           -0.333417	            0.029959	          -10.391421	           89.603369	           11.680873	           -0.244027	            0.005776	           -0.746180	            0.225526	           -1.944668	           -0.253511
            2.503500	          -29.099013	          198.543184	          -16.869042	           -0.246159	            0.006320	           -0.428484	            0.063913	           -0.436077	            0.037051	          -10.866566	           91.443160	           11.687643	           -0.243172	            0.005774	           -0.744955	            0.235886	           -1.985004	           -0.253710
            2.504000	          -26.669392	          203.229184	          -16.533984	           -0.245176	            0.006328	           -0.430261	            0.059428	           -0.452857	            0.036843	          -11.619447	           92.360853	           11.785103	           -0.242683	            0.005775	           -0.744696	            0.247546	           -1.967694	           -0.251075
            2.504500	          -24.837816	          209.360341	          -16.924957	           -0.245864	            0.006324	           -0.429529	            0.019087	           -0.160885	            0.013006	          -12.890731	           94.195258	           12.496133	           -0.242676	            0.005776	           -0.744914	            0.259119	           -1.893439	           -0.251188
            2.505000	          -23.739447	          213.328364	          -17.369242	           -0.246340	            0.006323	           -0.429190	           -0.018313	            0.164568	           -0.013399	          -13.551077	           95.480262	           12.970292	           -0.241849	            0.005779	           -0.745004	            0.251804	           -1.774198	           -0.241012
            2.505500	          -23.098791	          217.114854	          -17.538026	           -0.246769	            0.006322	           -0.428972	           -0.040873	            0.384178	           -0.031033	          -14.827658	           98.787687	           13.733507	           -0.241796	            0.005786	           -0.746835	            0.251584	           -1.676154	           -0.233020
            2.506000	          -23.054699	          221.082477	          -17.933838	           -0.245927	            0.006323	           -0.429222	           -0.017029	            0.163303	           -0.013247	          -15.586917	          101.544687	           14.447603	           -0.241298	            0.005786	           -0.746181	            0.257322	           -1.676383	           -0.238513
            2.506500	          -22.596828	          224.147082	          -17.921835	           -0.246077	            0.006326	           -0.430006	            0.024520	           -0.243226	            0.019447	          -16.344141	          103.748915	           15.253585	           -0.241093	            0.005783	           -0.745333	            0.256748	           -1.629778	           -0.239617
            2.507000	          -21.267160	          227.931345	          -17.542055	           -0.246494	            0.006326	           -0.429847	            0.058182	           -0.623568	            0.047991	          -16.925390	          109.085353	           15.789088	           -0.242316	            0.005786	           -0.747337	            0.265660	           -1.712199	           -0.247825
            2.507500	          -19.525398	          233.158207	          -17.248827	           -0.247679	            0.006322	           -0.428925	            0.060083	           -0.717467	            0.053078	          -17.311200	          112.212171	           16.457410	           -0.241474	            0.005790	           -0.747718	            0.267822	           -1.736034	           -0.254613
            2.508000	          -16.729166	          237.303874	          -17.008710	           -0.246416	            0.006325	           -0.429630	            0.026120	           -0.370506	            0.026556	          -18.125344	          117.179299	           17.038627	           -0.242009	            0.005790	           -0.748101	            0.255336	           -1.650736	           -0.240028
            2.508500	          -13.565713	          240.727960	          -16.635027	           -0.246895	            0.006327	           -0.430124	           -0.012174	            0.216032	           -0.014928	          -18.842305	          121.224677	           17.991943	           -0.242726	            0.005792	           -0.749394	            0.257241	           -1.654998	           -0.245632
            2.509000	          -12.144295	          244.151710	          -16.257020	           -0.247481	            0.006326	           -0.430020	           -0.020689	            0.415945	           -0.027696	          -20.169868	          125.637994	           18.430623	           -0.243523	            0.005787	           -0.748969	            0.231435	           -1.441610	           -0.211479
            2.509500	          -11.090546	          247.036361	          -16.293126	           -0.247162	            0.006329	           -0.430621	           -0.014819	            0.330096	           -0.021771	          -20.518692	          131.526376	           19.343423	           -0.242267	            0.005796	           -0.750206	            0.229670	           -1.472205	           -0.216515
            2.510000	          -10.633931	          251.364595	          -16.688416	           -0.247069	            0.006327	           -0.430192	            0.008084	           -0.191091	            0.012687	          -20.907599	          135.572087	           20.531240	           -0.243656	            0.005790	           -0.749738	            0.237034	           -1.537013	           -0.232768
            2.510500	          -10.314602	          256.233040	          -16.943478	           -0.247769	            0.006324	           -0.429472	            0.027176	           -0.675102	            0.044641	          -21.582984	          141.090501	           21.583649	           -0.244275	            0.005792	           -0.751051	            0.233284	           -1.525007	           -0.233291
